<?xml version="1.0" encoding="UTF-8" standalone="no"?>
<svg
  xmlns:dc="http://purl.org/dc/elements/1.1/"
  xmlns:cc="http://creativecommons.org/ns#"
  xmlns:rdf="http://www.w3.org/1999/02/22-rdf-syntax-ns#"
  xmlns:svg="http://www.w3.org/2000/svg"
  xmlns="http://www.w3.org/2000/svg"
  viewBox="0 0 793.70667 551.18665"
  xml:space="preserve"
  id="svg2"
  version="1.1"><metadata
     id="metadata8"><rdf:RDF><cc:Work
         rdf:about=""><dc:format>image/svg+xml</dc:format><dc:type
  rdf:resource="http://purl.org/dc/dcmitype/StillImage"/></cc:Work></rdf:RDF></metadata>
  <defs
    id="defs6"/>
  <g
    transform="matrix(1.3333333,0,0,-1.3333333,0,551.18667)"
    id="g10"><g
       transform="scale(0.1)"
       id="g12"><path
         id="path14"
         style="fill:#151515;fill-opacity:1;fill-rule:nonzero;stroke:none"
         d="m 1831.95,2287.12 c 5.16,14.8 8.98,28.06 11.53,39.97 2.47,11.91 3.74,22.63 3.74,31.98 0.07,20.33 -6.14,35.13 -18.71,44.4 -12.51,9.36 -31.89,13.95 -58.1,13.78 H 1545.83 L 1424.1,2063.09 h 83.1 l 31.2,90.84 h 28.09 95.67 17.52 c 17.37,0 32.71,1.36 46.04,4.34 13.32,2.89 25.08,7.48 35.33,13.86 10.34,6.38 19.55,14.8 27.63,25.09 8.16,10.38 15.72,22.96 22.68,37.85 6.97,14.88 13.85,32.23 20.59,52.05 z m -265.31,-50.96 33.99,98.93 h 124.86 c 10.26,0.08 17.6,-1.19 22.17,-3.83 4.48,-2.64 6.66,-6.97 6.58,-13.01 0,-3.74 -0.67,-8.17 -1.95,-13.27 -1.34,-5.02 -3.21,-10.97 -5.68,-17.86 -3.82,-11.23 -7.42,-20.33 -10.63,-27.13 -3.3,-6.81 -6.81,-11.99 -10.56,-15.4 -3.82,-3.48 -8.38,-5.78 -13.77,-6.89 -5.47,-1.19 -12.21,-1.7 -20.29,-1.61 h -29.2 v 0.07 z m 2532.18,19.5 h -71.35 l 28.79,84.02 h 155.41 c 6.67,0 11.53,-1.02 14.53,-3.15 2.92,-2.2 4.42,-5.53 4.34,-10.11 0,-3.33 -0.75,-7.49 -2.09,-12.59 -1.43,-5.11 -3.23,-11.15 -5.55,-18.04 -2.84,-8.33 -5.76,-15.22 -8.68,-20.49 -2.92,-5.28 -6.21,-9.44 -9.81,-12.25 -3.67,-2.89 -8,-4.93 -13.1,-6.04 -5.01,-1.02 -11.15,-1.62 -18.26,-1.53 h -74.23 z m -95.02,-69.07 h 146.79 c 8.45,-0.09 14.67,-1.96 18.56,-5.7 3.82,-3.83 5.76,-9.02 5.69,-15.73 0,-3.07 -0.45,-6.64 -1.28,-10.55 -0.89,-3.91 -2.09,-8.08 -3.66,-12.42 l -26.95,-79.1 h 83.09 l 33.25,96.96 c 2.02,5.62 3.51,10.89 4.41,15.74 0.98,4.84 1.43,9.27 1.43,13.35 0,10.8 -3.15,19.14 -9.29,25 -6.21,5.96 -15.42,9.19 -27.55,9.7 l 0.45,1.53 c 14.45,1.79 26.81,6.38 37.14,13.95 10.32,7.57 19.24,17.69 26.65,30.45 7.41,12.67 13.99,27.64 19.76,44.91 3.81,10.71 6.51,20.41 8.24,29.17 1.72,8.76 2.54,16.5 2.54,23.39 -0.07,13.01 -3.07,23.13 -8.91,30.44 -5.92,7.32 -14.3,12.42 -25.3,15.32 -10.93,2.97 -24.1,4.33 -39.46,4.25 h -249.28 l -121.73,-354.16 h 83.09 z m -2012.88,10.91 h -69 l 116.65,145.24 15.72,-145.44 h -63.37 z m -128.17,-73.68 h 198.73 l 6.73,-60.73 h 92.98 l -33.69,302.62 c -0.97,9.95 -2.92,18.79 -5.83,26.54 -2.92,7.73 -7.34,13.77 -13.18,18.19 -5.84,4.43 -13.55,6.72 -23.21,6.81 h -81.3 l -282.53,-354.16 h 92.53 z m 1370.62,151.56 h -0.05 l 22.06,64.3 h 150.93 c 7.33,0 12.57,-0.94 15.64,-2.81 3.15,-1.87 4.64,-4.84 4.56,-8.93 0,-2.29 -0.45,-4.93 -1.19,-7.99 -0.83,-3.06 -1.95,-6.55 -3.3,-10.38 -2.39,-7.06 -4.94,-12.93 -7.56,-17.43 -2.61,-4.43 -5.68,-7.91 -9.13,-10.38 -3.51,-2.46 -7.71,-4.17 -12.72,-5.02 -5.02,-0.93 -11.09,-1.44 -18.2,-1.36 h -63.52 z m -22.45,-65.32 h 145.53 c 6.59,0.09 12.05,-0.33 16.39,-1.1 4.27,-0.77 7.49,-2.3 9.66,-4.42 2.09,-2.13 3.14,-5.2 3.14,-9.28 0,-2.29 -0.3,-5.01 -0.97,-8.07 -0.68,-3.15 -1.72,-6.72 -3.07,-10.81 -3.22,-9.44 -7.11,-16.75 -11.53,-21.94 -4.49,-5.19 -9.88,-8.85 -16.24,-10.89 -6.37,-2.04 -14.07,-2.97 -22.99,-2.89 h -143.73 z m -720.03,-146.97 28.29,82.16 h -224.13 l 93.43,272 h -83.1 l -101.51,-294.96 c -1.13,-3.57 -2.02,-7.14 -2.62,-10.63 -0.68,-3.58 -0.98,-6.97 -0.98,-10.29 0,-7.57 1.58,-14.21 4.57,-19.91 2.99,-5.69 7.33,-10.2 12.87,-13.43 5.55,-3.24 12.21,-4.85 19.84,-4.94 z m 535.41,0 121.73,354.16 h -84 c -10.33,-0.09 -20.13,-2.64 -29.49,-7.66 -9.36,-4.93 -18.5,-11.65 -27.25,-20.07 -8.76,-8.42 -17.37,-17.94 -25.9,-28.41 l -169.34,-204.63 -24.71,204.63 c -0.82,7.49 -1.94,14.55 -3.37,21.27 -1.42,6.72 -3.52,12.67 -6.13,17.94 -2.7,5.19 -6.44,9.27 -11.08,12.34 -4.65,2.97 -10.71,4.5 -18.04,4.59 h -92.54 l -121.72,-354.16 h 83.09 l 89.39,260.26 35.04,-260.26 h 76.35 l 214.26,260.26 -89.38,-260.26 z m 433.01,98.5 c 3.22,8.93 5.69,17.26 7.56,24.91 1.79,7.66 2.77,14.63 2.77,21.01 0.08,6.46 -1.12,12.16 -3.45,16.93 -2.39,4.76 -6.21,8.59 -11.68,11.39 -5.39,2.89 -12.64,4.68 -21.71,5.36 l 1.35,3.57 c 10.94,1.96 20.44,5.19 28.45,9.7 8.02,4.51 14.9,10.21 20.74,17.18 5.84,6.89 10.93,14.97 15.34,24.15 4.43,9.19 8.54,19.39 12.29,30.63 3.36,9.43 5.76,17.94 7.25,25.42 1.5,7.57 2.17,14.46 2.17,20.5 -0.07,12.33 -3.21,21.69 -9.42,28.24 -6.15,6.46 -14.98,10.97 -26.36,13.35 -11.38,2.3 -24.93,3.49 -40.58,3.32 h -244.79 l -121.73,-354.16 h 246.59 c 13.19,-0.08 25.38,0.6 36.61,1.96 11.16,1.36 21.49,3.91 31,7.74 9.43,3.83 18.19,9.36 26.2,16.67 8.09,7.23 15.5,16.84 22.3,28.58 6.82,11.73 13.18,26.28 19.1,43.55 z m 412.79,19.39 81.3,236.27 h -83.1 l -79.05,-230.15 c -3.53,-10.21 -7.27,-18.37 -11.08,-24.49 -3.89,-6.04 -8.24,-10.55 -13.03,-13.44 -4.79,-2.98 -10.4,-4.85 -16.77,-5.79 -6.36,-0.85 -13.85,-1.27 -22.46,-1.19 h -91.18 c -8.91,-0.08 -16.69,0.17 -23.43,0.85 -6.74,0.68 -11.98,2.47 -15.72,5.27 -3.82,2.81 -5.7,7.41 -5.76,13.78 0,2.81 0.37,5.87 1.04,9.28 0.75,3.48 1.88,7.31 3.45,11.65 l 80.4,234.23 h -83.1 l -81.3,-236.27 c -4.79,-13.52 -8.46,-25.78 -11.16,-36.92 -2.69,-11.05 -4.04,-21 -4.11,-29.94 -0.08,-9.26 1.8,-17.34 5.68,-24.15 3.82,-6.8 10.11,-12.42 18.73,-16.84 8.68,-4.42 20.21,-7.74 34.51,-9.86 14.37,-2.13 31.96,-3.24 52.93,-3.24 h 91.18 c 23.28,-0.08 43.87,1.79 61.76,5.62 17.89,3.82 33.61,10.37 47.16,19.47 13.55,9.1 25.45,21.44 35.71,37.17 10.25,15.65 19.39,35.21 27.4,58.69 z m 819.75,20.41 21.1,61.74 h -204.38 v -65.31 h 97.47 c -4.26,-12.34 -8.68,-22.37 -13.24,-30.28 -4.65,-7.91 -9.51,-14.04 -14.75,-18.37 -5.24,-4.42 -10.93,-7.4 -17.06,-9.1 -6.07,-1.71 -12.81,-2.56 -20.07,-2.47 h -103.76 c -8.01,-0.09 -14.89,0.43 -20.73,1.62 -5.84,1.18 -10.34,3.74 -13.48,7.48 -3.22,3.74 -4.8,9.35 -4.86,16.93 0,5.1 0.67,11.13 2.16,18.28 1.5,7.06 3.89,15.48 7.26,25.09 l 17.97,52.56 c 4.94,14.72 9.88,27.13 14.82,37.17 4.87,10.04 10.19,18.12 16.03,24.07 5.76,6.04 12.5,10.38 20.13,13.01 7.64,2.64 16.69,3.91 27.17,3.83 h 233.13 c 1.12,5.1 1.94,9.86 2.39,14.2 0.53,4.43 0.75,8.51 0.75,12.33 -0.08,10.98 -1.94,19.91 -5.61,26.97 -3.74,6.97 -8.83,12.5 -15.42,16.41 -6.52,4 -14.08,6.8 -22.69,8.51 -8.68,1.79 -17.89,2.89 -27.77,3.23 -9.95,0.43 -20.06,0.6 -30.47,0.51 h -106.01 c -15.27,0.09 -30.09,-0.77 -44.46,-2.72 -14.37,-1.96 -28.15,-5.53 -41.33,-10.89 -13.25,-5.27 -25.67,-12.92 -37.35,-22.88 -11.76,-9.95 -22.61,-22.96 -32.65,-38.87 -10.03,-15.98 -19.01,-35.55 -27.02,-58.85 l -31.44,-91.86 c -4.72,-13.95 -8.24,-26.53 -10.48,-37.76 -2.33,-11.22 -3.45,-21.26 -3.45,-30.11 0.08,-13.69 2.55,-24.83 7.41,-33.51 4.88,-8.67 11.68,-15.39 20.52,-20.07 8.76,-4.68 19.09,-7.91 31,-9.69 11.89,-1.79 24.92,-2.64 38.99,-2.56 h 112.74 c 19.77,-0.08 37.29,1.02 52.63,3.24 15.35,2.29 28.98,6.29 40.96,12.16 11.9,5.78 22.67,14.03 32.33,24.66 9.59,10.55 18.58,24.16 26.88,40.74 8.31,16.59 16.55,36.74 24.64,60.56" /><path
    id="path16"
    style="fill:#459ddc;fill-opacity:1;fill-rule:evenodd;stroke:none"
    d="m 1853.89,3174.88 1567.62,-1.28 c 18.35,-0.01 17.04,5.96 1.33,15.43 l -234.41,141.11 c -15.06,9.07 -85.08,20.81 -127.89,21.77 l -290.4,175.84 c -67.23,40.71 -80.46,-0.64 -53.64,-38.6 l 91.36,-137.17 h -812.2 c -39.48,0 -68.07,-18.53 -78.85,-33.37 l -80.27,-110.36 c -10.79,-14.83 -1,-33.36 17.35,-33.37"/><path
    id="path18"
    style="fill:#459ddc;fill-opacity:1;fill-rule:evenodd;stroke:none"
    d="m 1590.64,2507.9 3057.75,-1.35 c 19.41,-0.01 16.74,9.94 -3.51,16.31 l -339.94,149.24 c -19.95,8.76 -103.48,23.09 -147.96,23.09 H 1684.15 c -41.76,0 -66.09,-19.6 -72.77,-35.28 l -49.72,-116.72 c -6.68,-15.7 9.57,-35.29 28.98,-35.29"/><path
    id="path20"
    style="fill:#2d3589;fill-opacity:1;fill-rule:evenodd;stroke:none"
    d="m 4983,2403.14 303.1,3.68 c 45.49,0.55 81.19,-41.24 48.65,-91.07 l -461.91,-832.4 c -7.58,-13.65 -28.01,-26.39 -54.83,-37.76 -87,-14.61 -173.69,-22.7 -263.1,-25.96 -176.85,-6.45 -357.3,3 -533.75,14.91 -178.03,12.02 -357.27,39.68 -533.22,68.92 -199.83,33.19 -399.02,70.1 -598.99,102.51 -189.06,30.64 -379.44,57.79 -570.41,73.05 -176.75,14.11 -358.07,18.59 -534.56,-0.86 -306.16,-33.75 -574.85,-131.62 -828.964,-274.55 -19.485,15.51 -25.45,45.37 -13.176,79.74 l 153.39,450.14 116.54,-0.12 3567.62,-17.76 203.61,487.53"/><path
    id="path22"
    style="fill:#459ddc;fill-opacity:1;fill-rule:evenodd;stroke:none"
    d="m 730.824,1096.23 c 286.086,208.03 649.606,422.89 1128.746,475.71 672.28,74.09 1594.65,-201.15 2227.27,-243.84 632.61,-42.68 810.64,-2.26 1140.01,91.75 110.31,32.62 231.39,58.71 34.22,-91.88 C 4904.06,1056.08 4498.11,861.789 3908.78,870.859 3184.34,882.02 2475.09,1158.22 1833.52,1168.54 c -407.1,6.55 -760.32,-39.63 -1093.895,-149.79 -181.07,-59.789 -130.109,-10.73 -8.801,77.48 z m 5.344,-296.718 C 1730.49,1346 2614.41,697.75 3538.41,731.75 c 180.25,6.629 182.08,8.84 1.87,-57.93 C 2911.94,441.039 1992.11,762.371 1560.47,769.301 1128.83,776.23 1041.22,752.719 760.469,720.18 553.723,696.211 514.262,677.551 736.168,799.512"/><path
    id="path24"
    style="fill:#151515;fill-opacity:1;fill-rule:nonzero;stroke:none"
    d="m 2086.18,3112.29 -46.93,-133.11 h -208.38 l 46.89,133.11 h -85.12 l -124.68,-353.94 h 85.12 l 48.86,138.72 h 208.32 l -48.77,-138.72 h 85.12 l 124.68,353.94 h -85.11"/><path
    id="path26"
    style="fill:#151515;fill-opacity:1;fill-rule:nonzero;stroke:none"
    d="m 2460.68,2975.1 -28.07,-79.56 c -18.4,-52.53 -40.94,-58.14 -71.77,-58.14 h -105.82 c -22.09,0 -37.27,3.06 -37.27,23.97 0,8.67 2.3,19.38 7.36,34.17 l 28.07,79.56 c 18.4,52.54 40.03,57.63 70.85,57.63 h 105.82 c 20.71,0 37.73,-2.55 37.73,-24.99 0,-8.16 -2.3,-18.87 -6.9,-32.64 z m 102.6,68.85 c 0,58.14 -49.23,70.89 -104.44,70.89 h -105.82 c -73.16,0 -145.85,-20.39 -184.04,-129.54 l -34.96,-99.96 c -8.28,-23.97 -12.42,-43.86 -12.42,-60.18 0,-57.12 47.38,-69.87 104.89,-69.87 h 105.82 c 73.62,0 145.85,20.91 184.04,130.05 l 34.96,99.96 c 8.29,23.46 11.97,42.84 11.97,58.65"/><path
    id="path28"
    style="fill:#151515;fill-opacity:1;fill-rule:nonzero;stroke:none"
    d="m 2872.45,3114.84 h -101.22 c -82.82,0 -137.57,-6.62 -173,-108.12 -8.28,-23.97 -12.42,-42.33 -12.42,-56.61 0,-45.9 40.49,-47.94 99.84,-48.96 l 119.16,-2.55 c 25.31,-0.51 37.27,-1.53 37.27,-14.79 0,-4.59 -1.38,-10.71 -4.14,-18.36 -10.59,-29.58 -27.61,-32.64 -64.87,-32.64 h -233.73 c -1.84,-9.18 -2.76,-17.34 -2.76,-24.48 0,-52.53 46.47,-53.04 108.12,-53.04 h 101.22 c 130.2,0 154.59,45.39 179.43,116.28 8.28,23.46 12.42,41.31 12.42,55.59 0,35.19 -27.6,45.39 -94.31,46.41 l -136.18,2.55 c -16.57,0.51 -27.15,2.04 -27.15,14.79 0,4.08 0.92,9.18 3.22,16.33 6.9,19.88 15.64,30.6 60.73,30.6 h 229.58 c 2.31,10.2 3.68,18.86 3.68,26.51 0,49.48 -51.52,50.49 -104.89,50.49"/><path
    id="path30"
    style="fill:#151515;fill-opacity:1;fill-rule:nonzero;stroke:none"
    d="m 3364.27,3030.18 28.98,82.11 h -353.81 l -28.98,-82.11 h 132.51 l -95.7,-271.83 h 85.11 l 95.45,271.83 h 136.44"/><path
    id="path32"
    style="fill:#151515;fill-opacity:1;fill-rule:nonzero;stroke:none"
    d="m 3795.35,2840.46 95.69,271.83 h -85.1 l -103.99,-294.78 c -2.3,-7.14 -3.68,-14.28 -3.68,-20.91 0,-22.44 14.73,-38.25 38.19,-38.25 h 259.49 l 28.98,82.11 h -229.58"/><path
    id="path34"
    style="fill:#151515;fill-opacity:1;fill-rule:nonzero;stroke:none"
    d="m 3683.03,2904.72 23.02,65.28 h -246.78 l 22.77,64.77 h 246.6 l 27.61,77.52 h -276.51 c -30.36,0 -64.42,-25.49 -76.38,-59.16 l -82.81,-235.62 c -2.3,-7.14 -3.68,-14.28 -3.68,-20.91 0,-22.44 14.72,-38.25 38.19,-38.25 h 276.35 l 27.34,77.52 h -246.64 l 24.2,68.85 h 246.72"/></g></g></svg>
